<?xml version="1.0" standalone="no"?>
<!DOCTYPE svg PUBLIC "-//W3C//DTD SVG 20010904//EN"
 "http://www.w3.org/TR/2001/REC-SVG-20010904/DTD/svg10.dtd">
<svg version="1.0" xmlns="http://www.w3.org/2000/svg"
 width="512.000000pt" height="512.000000pt" viewBox="0 0 512.000000 512.000000"
 preserveAspectRatio="xMidYMid meet">

<g transform="translate(0.000000,512.000000) scale(0.100000,-0.100000)"
fill="#000000" stroke="none">
<path d="M2384 5109 c-1161 -74 -2145 -958 -2344 -2109 -181 -1038 292 -2076
1196 -2625 810 -493 1838 -493 2648 0 700 425 1154 1154 1226 1970 85 957
-394 1895 -1226 2400 -355 216 -743 337 -1169 365 -164 10 -156 10 -331 -1z
m471 -416 c382 -52 743 -206 1047 -447 43 -33 78 -64 78 -68 0 -15 -134 -160
-213 -230 -157 -140 -337 -264 -538 -372 -109 -58 -330 -156 -352 -156 -7 0
-33 35 -57 78 -192 342 -511 841 -703 1100 -21 30 -35 58 -31 62 14 13 198 41
319 49 139 10 309 4 450 -16z m-1185 -240 c149 -211 360 -531 527 -798 76
-121 225 -377 221 -380 -2 -1 -82 -21 -178 -44 -381 -89 -802 -156 -1217 -191
-131 -11 -565 -29 -572 -24 -17 14 90 328 164 479 197 405 508 732 905 952 52
29 100 53 106 53 5 0 25 -21 44 -47z m2652 -650 c239 -341 366 -701 394 -1109
l7 -100 -134 23 c-196 33 -506 62 -729 70 -176 5 -506 -8 -598 -24 -30 -5 -33
-3 -48 33 -9 22 -50 113 -90 203 -41 90 -73 166 -70 168 2 3 46 24 98 47 406
183 805 463 1028 721 36 41 65 75 66 75 1 0 35 -48 76 -107z m-1621 -1063 c68
-143 76 -166 61 -172 -9 -3 -71 -25 -137 -48 -280 -99 -636 -301 -895 -509
-235 -189 -558 -540 -720 -783 -36 -54 -67 -97 -70 -97 -3 0 -32 35 -66 77
-156 197 -279 419 -356 642 -72 210 -118 472 -118 668 l0 92 94 0 c226 0 667
31 941 66 329 41 775 128 1020 198 66 19 131 33 144 32 22 -1 34 -22 102 -166z
m1424 -431 c229 -21 565 -91 565 -118 0 -35 -50 -232 -83 -326 -73 -213 -170
-398 -305 -585 -90 -125 -312 -350 -432 -439 l-84 -63 -32 153 c-90 435 -212
878 -344 1247 -29 81 -36 114 -27 117 17 5 227 25 307 29 92 4 305 -3 435 -15z
m-1137 -259 c160 -437 313 -983 388 -1383 15 -85 16 -100 3 -108 -31 -20 -290
-98 -389 -118 -410 -81 -846 -43 -1223 108 -152 61 -329 157 -454 246 l-71 52
27 49 c15 27 47 78 71 114 330 485 836 877 1445 1119 83 33 151 59 152 57 1
-1 24 -62 51 -136z"/>
</g>
</svg>
