<?xml version="1.0" standalone="no"?>
<!DOCTYPE svg PUBLIC "-//W3C//DTD SVG 20010904//EN"
 "http://www.w3.org/TR/2001/REC-SVG-20010904/DTD/svg10.dtd">
<svg version="1.0" xmlns="http://www.w3.org/2000/svg"
 width="512.000000pt" height="512.000000pt" viewBox="0 0 512.000000 512.000000"
 preserveAspectRatio="xMidYMid meet">

<g transform="translate(0.000000,512.000000) scale(0.100000,-0.100000)"
fill="#000000" stroke="none">
<path d="M2390 5114 c-273 -21 -586 -95 -830 -199 -300 -126 -601 -334 -836
-576 -394 -407 -626 -893 -705 -1479 -17 -122 -17 -478 0 -600 79 -583 310
-1068 701 -1474 405 -420 914 -677 1505 -762 148 -21 496 -24 635 -5 417 57
767 184 1095 398 594 389 1008 1016 1125 1705 111 655 -26 1304 -391 1852
-410 618 -1046 1016 -1789 1121 -107 15 -410 26 -510 19z m474 -460 c300 -41
593 -155 865 -334 66 -45 121 -83 121 -87 0 -3 -38 -49 -84 -102 -172 -198
-397 -378 -663 -529 -91 -52 -296 -152 -312 -152 -5 0 -44 62 -86 138 -162
285 -389 638 -583 907 -44 61 -79 111 -77 113 5 5 115 29 195 42 190 32 412
33 624 4z m-1127 -382 c203 -280 397 -578 564 -868 33 -58 59 -107 57 -109 -2
-3 -76 -23 -164 -45 -376 -96 -792 -154 -1289 -180 -282 -15 -395 -13 -395 5
0 27 77 249 122 351 55 124 148 282 236 401 84 112 322 350 429 428 102 75
283 185 303 185 8 0 70 -76 137 -168z m2484 -404 c190 -238 349 -580 408 -878
24 -120 46 -298 38 -306 -3 -3 -54 2 -114 10 -317 47 -697 65 -966 47 -157
-11 -382 -36 -418 -46 -20 -7 -187 357 -167 364 7 2 90 43 183 90 203 103 333
183 503 311 126 93 374 327 442 414 19 25 38 45 42 46 4 0 26 -24 49 -52z
m-1585 -1104 c35 -75 66 -145 67 -155 2 -17 -18 -28 -128 -68 -571 -210 -1032
-551 -1443 -1065 -40 -50 -100 -130 -133 -178 -33 -49 -62 -88 -64 -88 -9 0
-129 165 -177 243 -189 303 -293 646 -305 1003 l-6 161 274 6 c639 15 1241 99
1713 237 72 21 132 39 134 39 2 1 32 -60 68 -135z m1599 -474 c150 -15 399
-51 407 -59 10 -8 -34 -206 -72 -323 -135 -422 -440 -837 -791 -1076 l-46 -31
-28 137 c-72 354 -183 757 -304 1113 -39 114 -71 211 -71 217 0 10 41 15 230
33 108 10 543 3 675 -11z m-1326 -172 c116 -319 224 -672 296 -973 46 -189
120 -554 114 -559 -2 -2 -53 -20 -114 -39 -219 -70 -411 -100 -645 -100 -422
0 -814 119 -1167 352 -67 45 -124 85 -127 89 -3 5 22 49 54 97 348 510 776
878 1260 1086 83 36 279 108 296 108 5 1 20 -27 33 -61z"/>
</g>
</svg>
